<svg xmlns="http://www.w3.org/2000/svg" viewBox="0 0 120 130" role="img" aria-label="Takto, a black cat with a yellow scarf">
  <path d="M88 116c16-1 24-15 15-27-3-4-1-9 4-7" fill="none" stroke="#18120f" stroke-width="7" stroke-linecap="round"/>
  <ellipse cx="60" cy="108" rx="27" ry="20" fill="#18120f"/>
  <path d="M29 54 24 12l29 22z" fill="#18120f" stroke="#18120f" stroke-width="4" stroke-linejoin="round"/>
  <path d="M91 54l5-42-29 22z" fill="#18120f" stroke="#18120f" stroke-width="4" stroke-linejoin="round"/>
  <path d="M31 44l-2-19 14 10z" fill="#e8a2a8"/>
  <path d="M89 44l2-19-14 10z" fill="#e8a2a8"/>
  <ellipse cx="60" cy="63" rx="36" ry="31" fill="#18120f"/>
  <circle cx="46" cy="61" r="9" fill="#f6c21a"/>
  <circle cx="74" cy="61" r="9" fill="#f6c21a"/>
  <ellipse cx="46" cy="61" rx="3.8" ry="6.8" fill="#18120f"/>
  <ellipse cx="74" cy="61" rx="3.8" ry="6.8" fill="#18120f"/>
  <circle cx="48.2" cy="57.5" r="2" fill="#fff"/>
  <circle cx="76.2" cy="57.5" r="2" fill="#fff"/>
  <path d="M56 71h8l-4 4.5z" fill="#e8a2a8"/>
  <path d="M60 75.5v3m0 0c-3 3.2-7.5 2.2-8.5-1.2M60 78.5c3 3.2 7.5 2.2 8.5-1.2" fill="none" stroke="#8a7770" stroke-width="1.5" stroke-linecap="round"/>
  <path d="M30 70l-13-2M30 75l-12 4M90 70l13-2M90 75l12 4" stroke="#fff" stroke-opacity=".45" stroke-width="1.2" stroke-linecap="round"/>
  <path d="M34 88q26 14 52 0l2 10q-28 15-56 0z" fill="#f2b100"/>
  <path d="M63 96l11 19 7-3-5-19z" fill="#d79b00"/>
</svg>
